<?xml version="1.0" encoding="utf-8"?>
<!-- Generator: Adobe Illustrator 25.0.0, SVG Export Plug-In . SVG Version: 6.00 Build 0)  -->
<svg version="1.1" id="katman_1" xmlns="http://www.w3.org/2000/svg" xmlns:xlink="http://www.w3.org/1999/xlink" x="0px" y="0px"
	 viewBox="0 0 560 400" style="enable-background:new 0 0 560 400;" xml:space="preserve">
<style type="text/css">
	.st0{fill:#FF6600;}
</style>
<g transform="matrix(1.26225 0 0 -1.26225 -95.6965 731.338)">
	<g>
		<path class="st0" d="M208.7,422.6h-9.1l14.1,27.2h10.1l13.4-27.2H227l-2,4.9h-14.1L208.7,422.6z M222.5,433.4l-4.3,9.9l-4.6-9.9
			H222.5z"/>
		<path class="st0" d="M239.2,422.6h8.7v27.2h-8.7V422.6z"/>
		<path class="st0" d="M252.4,449.8h8.7v-5.5h-8.7L252.4,449.8z M252.4,441.5h8.7v-18.9h-8.7L252.4,441.5z"/>
		<path class="st0" d="M265.9,449.8h8.7v-10.9c1,1.1,2.2,1.9,3.5,2.4c1.3,0.5,2.7,0.8,4.2,0.8c3,0,5.4-1,7.2-2.9
			c1.8-1.9,2.7-4.4,2.7-7.6c0-2.9-0.9-5.2-2.7-6.9c-1.8-1.7-4.1-2.6-7.1-2.6c-1.6,0-3.1,0.3-4.4,0.9c-1.3,0.6-2.5,1.5-3.4,2.6
			c0-0.6,0-1.2-0.1-1.7c0-0.5-0.1-1-0.2-1.3h-8.7c0.1,0.4,0.2,0.8,0.2,1.3c0.1,0.5,0.1,1.1,0.1,1.8V449.8z M283.4,432
			c0,1.7-0.4,3-1.2,3.9c-0.8,1-1.9,1.4-3.2,1.4c-1.4,0-2.6-0.5-3.3-1.4c-0.8-0.9-1.2-2.3-1.2-4c0-1.7,0.4-3,1.2-3.9
			c0.8-0.9,1.9-1.4,3.2-1.4c1.4,0,2.4,0.5,3.2,1.4C283,429.1,283.4,430.4,283.4,432"/>
		<path class="st0" d="M312.2,425.6c-0.8-1.1-1.9-1.9-3.2-2.4c-1.3-0.5-2.9-0.8-4.8-0.8c-2.7,0-4.8,0.5-6.2,1.4
			c-1.4,1-2.2,2.3-2.2,4.1c0,2.4,1.2,4.1,3.7,5.2c2.5,1.1,6.7,1.6,12.5,1.7c0,0,0,0.1,0,0.2c0,0.1,0,0.2,0,0.2c0,1-0.3,1.7-0.9,2.2
			c-0.6,0.5-1.5,0.7-2.6,0.7c-1.1,0-1.9-0.2-2.4-0.5c-0.6-0.3-0.9-0.9-1-1.6h-8.1c0,2.1,1,3.7,3,4.7c2,1,4.9,1.5,8.9,1.5
			c3.8,0,6.7-0.6,8.6-1.8c1.9-1.2,2.8-3,2.8-5.5v-9.6c0-0.6,0-1.1,0.1-1.4c0.1-0.4,0.1-0.7,0.3-1h-8.1c-0.2,0.5-0.3,0.9-0.4,1.4
			C312.2,424.7,312.2,425.1,312.2,425.6 M312,431c-2.8,0-4.8-0.2-5.8-0.6c-1-0.4-1.5-1-1.5-1.9c0-0.6,0.3-1.1,0.7-1.5
			c0.5-0.3,1.2-0.5,2.1-0.5c1.5,0,2.6,0.3,3.3,1c0.7,0.7,1.1,1.7,1.1,3.1V431z"/>
		<path class="st0" d="M324.4,449.8h8.7v-10.9c1,1.1,2.2,1.9,3.5,2.4c1.3,0.5,2.7,0.8,4.2,0.8c3,0,5.4-1,7.2-2.9
			c1.8-1.9,2.7-4.4,2.7-7.6c0-2.9-0.9-5.2-2.7-6.9c-1.8-1.7-4.1-2.6-7.1-2.6c-1.6,0-3.1,0.3-4.4,0.9s-2.5,1.5-3.4,2.6
			c0-0.6,0-1.2-0.1-1.7c0-0.5-0.1-1-0.2-1.3h-8.7c0.1,0.4,0.2,0.8,0.2,1.3c0.1,0.5,0.1,1.1,0.1,1.8V449.8z M341.9,432
			c0,1.7-0.4,3-1.2,3.9c-0.8,1-1.9,1.4-3.2,1.4c-1.4,0-2.6-0.5-3.3-1.4s-1.2-2.3-1.2-4c0-1.7,0.4-3,1.2-3.9c0.8-0.9,1.9-1.4,3.2-1.4
			c1.4,0,2.4,0.5,3.2,1.4C341.5,429.1,341.9,430.4,341.9,432"/>
		<path class="st0" d="M370.7,425.6c-0.8-1.1-1.9-1.9-3.2-2.4c-1.3-0.5-2.9-0.8-4.8-0.8c-2.7,0-4.8,0.5-6.2,1.4
			c-1.4,1-2.2,2.3-2.2,4.1c0,2.4,1.2,4.1,3.7,5.2c2.5,1.1,6.7,1.6,12.5,1.7c0,0,0,0.1,0,0.2c0,0.1,0,0.2,0,0.2c0,1-0.3,1.7-0.9,2.2
			c-0.6,0.5-1.5,0.7-2.6,0.7c-1.1,0-1.9-0.2-2.4-0.5c-0.6-0.3-0.9-0.9-1-1.6h-8.1c0,2.1,1,3.7,3,4.7c2,1,4.9,1.5,8.9,1.5
			c3.8,0,6.7-0.6,8.6-1.8c1.9-1.2,2.8-3,2.8-5.5v-9.6c0-0.6,0-1.1,0.1-1.4c0.1-0.4,0.2-0.7,0.3-1h-8.1c-0.2,0.5-0.3,0.9-0.4,1.4
			C370.7,424.7,370.7,425.1,370.7,425.6 M370.5,431c-2.8,0-4.8-0.2-5.8-0.6c-1-0.4-1.5-1-1.5-1.9c0-0.6,0.3-1.1,0.7-1.5
			c0.5-0.3,1.2-0.5,2.1-0.5c1.5,0,2.6,0.3,3.3,1c0.7,0.7,1.1,1.7,1.1,3.1V431z"/>
		<path class="st0" d="M405.5,432.9v3.2h11.4v-10c-1.8-1.4-3.6-2.4-5.4-3.1c-1.9-0.7-3.8-1.1-5.7-1.1c-2.6,0-5.1,0.6-7.2,1.7
			c-2.2,1.1-3.8,2.8-4.9,4.9c-1.1,2.1-1.7,4.5-1.7,7.2c0,2.6,0.5,5.1,1.6,7.4c1.1,2.3,2.7,4,4.7,5.1c2.1,1.1,4.4,1.7,7.1,1.7
			c2,0,3.7-0.3,5.3-0.9c1.6-0.6,2.8-1.5,3.7-2.6c0.9-1.1,1.6-2.6,2-4.4l-3.2-0.9c-0.4,1.4-0.9,2.5-1.5,3.2c-0.6,0.8-1.5,1.4-2.6,1.9
			c-1.1,0.5-2.3,0.7-3.7,0.7c-1.6,0-3-0.2-4.2-0.7c-1.2-0.5-2.1-1.2-2.9-2c-0.7-0.8-1.3-1.7-1.7-2.7c-0.7-1.7-1-3.5-1-5.4
			c0-2.4,0.4-4.4,1.2-6.1c0.8-1.6,2-2.8,3.6-3.6c1.6-0.8,3.3-1.2,5-1.2c1.5,0,3,0.3,4.5,0.9c1.5,0.6,2.6,1.2,3.3,1.9v5H405.5z"/>
		<path class="st0" d="M422.1,422.2v19.6h3v-3c0.8,1.4,1.5,2.3,2.1,2.7c0.6,0.4,1.4,0.7,2.1,0.7c1.1,0,2.3-0.4,3.4-1.1l-1.2-3.1
			c-0.8,0.5-1.6,0.7-2.4,0.7c-0.7,0-1.4-0.2-2-0.7c-0.6-0.4-1-1-1.2-1.8c-0.4-1.2-0.6-2.5-0.6-3.9v-10.2H422.1z"/>
		<path class="st0" d="M433.5,432c0,3.6,1,6.3,3,8c1.7,1.4,3.7,2.2,6.1,2.2c2.7,0,4.9-0.9,6.6-2.6c1.7-1.8,2.6-4.2,2.6-7.3
			c0-2.5-0.4-4.5-1.1-5.9c-0.8-1.4-1.9-2.6-3.3-3.4c-1.4-0.8-3-1.2-4.7-1.2c-2.7,0-4.9,0.9-6.6,2.6
			C434.3,426.2,433.5,428.7,433.5,432 M436.9,432c0-2.5,0.5-4.4,1.6-5.6c1.1-1.2,2.5-1.9,4.1-1.9c1.6,0,3,0.6,4.1,1.9
			c1.1,1.3,1.6,3.2,1.6,5.7c0,2.4-0.5,4.2-1.6,5.5c-1.1,1.2-2.5,1.9-4.1,1.9c-1.7,0-3-0.6-4.1-1.9
			C437.4,436.4,436.9,434.5,436.9,432"/>
		<path class="st0" d="M469,422.7v2.9c-1.5-2.2-3.6-3.3-6.2-3.3c-1.2,0-2.2,0.2-3.2,0.7c-1,0.4-1.7,1-2.2,1.7
			c-0.5,0.7-0.8,1.5-1,2.5c-0.1,0.6-0.2,1.7-0.2,3.1v12.1h3.3v-10.8c0-1.7,0.1-2.9,0.2-3.5c0.2-0.9,0.6-1.6,1.3-2.1
			c0.7-0.5,1.5-0.7,2.5-0.7c1,0,1.9,0.3,2.8,0.8c0.9,0.5,1.5,1.2,1.8,2.1c0.4,0.9,0.5,2.1,0.5,3.8v10.5h3.3v-19.6H469z"/>
		<path class="st0" d="M478.7,414.7v27h3v-2.5c0.7,1,1.5,1.7,2.4,2.2c0.9,0.5,2,0.7,3.3,0.7c1.7,0,3.1-0.4,4.4-1.3
			c1.3-0.9,2.2-2.1,2.9-3.6c0.7-1.6,1-3.3,1-5.1c0-2-0.4-3.8-1.1-5.4c-0.7-1.6-1.8-2.8-3.1-3.7c-1.4-0.9-2.8-1.3-4.3-1.3
			c-1.1,0-2.1,0.2-3,0.7c-0.9,0.5-1.6,1.1-2.2,1.8v-9.5H478.7z M481.7,431.9c0-2.5,0.5-4.4,1.5-5.6c1-1.2,2.2-1.8,3.7-1.8
			c1.5,0,2.7,0.6,3.8,1.9c1.1,1.2,1.6,3.2,1.6,5.8c0,2.5-0.5,4.4-1.5,5.6c-1,1.2-2.2,1.9-3.7,1.9c-1.4,0-2.7-0.7-3.7-2
			C482.3,436.3,481.7,434.4,481.7,431.9"/>
	</g>
	<path d="M112.6,398.8c-0.5,0.1-1.2,0.5-1.8,0.9c-5.1,5,1.5,10.8,9.1,14.1v9.5c1.8-1.1,2.8-1.2,2.8-1.3l5.8,5.8l-1.9,5
		c17,5.9,23.9,8.1,37.7,10.5l-2.5,2.3l4,2.3c9.3-3.1,18.1-3.9,16.6-11.7c0.4,5.3-6.2,7.3-16.2,10.1l-1.9-1.2l3.7-3.1
		c-16.6-2.9-26.8-6.1-38.9-10.3l1.7-4.3l-6.1-6c1-0.3,11.6-3.8,22.7,3.9c0,0,0.2,0.2,0.2,0.2c-0.3,0.5-1.1,1.1-2,1.9
		c3.2-0.2,5.3-3.1,5-6H149c0.1,1-0.1,2-0.4,2.7c-8.6-6.3-18.5-7.2-27-4.2v-7.4c-4.1-1.5-11.4-6-11.4-10.4
		C110.6,400.1,111.6,399.4,112.6,398.8"/>
	<g>
		<path class="st0" d="M147.6,401.3c-9.2-4.6-18-8.4-31.5-8.9c-17.6,0.4-20.4,12.1-12,24.3c7.9,12.3,20.4,23.5,40.3,30.5
			c5.8,2,14.2,4.4,22.4,4.5c11.8,0.1,23.2-3.6,22.4-14.8c-0.4-8.6-12.9-20.8-19.5-29.5c-2.8-3.8-3.3-6.3,1.5-6.1
			c17.4,1.1,33.2,7.2,47.9,13.4c-9.9-6.7-61.2-32.1-61.4-14.8c0.1,2.2,1.1,4.5,2.7,7c1.6,2.5,3.9,5.1,6.2,7.7
			c3.5,4,12.2,13.5,15.1,19.2c4.9,10.8-6.1,11.4-15.6,14.7l-4-2.3l2.5-2.3c-13.9-2.3-20.7-4.6-37.7-10.5l1.9-5l-5.8-5.8
			c-0.2,0.2-1,0.2-2.8,1.3v-9.5c-7.6-3.3-14.2-9.1-9.1-14.1c0.5-0.4,1.3-0.9,1.8-0.9C122.3,394.1,147.7,401.3,147.6,401.3"/>
		<path class="st0" d="M202.5,395.1h1.2c0.3,0,0.5,0,0.6,0.1c0.2,0.1,0.3,0.1,0.3,0.3c0.1,0.1,0.1,0.2,0.1,0.4
			c0,0.2-0.1,0.4-0.2,0.5c-0.1,0.1-0.4,0.2-0.7,0.2h-1.3V395.1z M201.9,392.7v4.3h1.9c0.4,0,0.7,0,0.9-0.1c0.2-0.1,0.4-0.2,0.5-0.4
			c0.1-0.2,0.2-0.4,0.2-0.6c0-0.3-0.1-0.6-0.3-0.8c-0.2-0.2-0.5-0.3-0.9-0.4c0.2-0.1,0.3-0.1,0.3-0.2c0.2-0.2,0.3-0.3,0.5-0.6
			l0.7-1.2h-0.7l-0.6,0.9c-0.2,0.3-0.3,0.5-0.4,0.6c-0.1,0.1-0.2,0.2-0.3,0.3c-0.1,0.1-0.2,0.1-0.3,0.1c-0.1,0-0.2,0-0.3,0h-0.7
			v-1.9H201.9z"/>
		<path class="st0" d="M203.6,390.7c2.2,0,4.1,1.8,4.1,4.1c0,2.2-1.8,4.1-4.1,4.1c-2.2,0-4.1-1.8-4.1-4.1
			C199.6,392.5,201.4,390.7,203.6,390.7 M200.2,394.8c0,1.9,1.5,3.4,3.4,3.4c1.9,0,3.4-1.5,3.4-3.4c0-1.9-1.5-3.4-3.4-3.4
			C201.7,391.3,200.2,392.9,200.2,394.8"/>
		<path class="st0" d="M239.2,413.9v-23c1.6,0,3.4,1.4,3.4,3v1.2h1.9c1.3,0.1,2.8,1.9,2.8,2.8v5.1c0,1-1.1,1.7-1.6,2
			c0.5,0.5,1.6,1.2,1.6,2.2v6.6H239.2z M243.9,406.3c0-0.4-0.3-1-0.7-1.4c-0.1-0.1-0.3-0.3-0.3-0.3c0,0-0.1-0.1-0.1-0.1h1.1v-6.7
			h-1.3v13.2h1.3V406.3z M256.7,399v10.3h-8.1v-14.1h4c0.6,0.1,1.4,0.3,2,0.8c0.4,0.3,0.7,0.5,1,0.8
			C256.3,397.5,256.7,398.2,256.7,399 M251.8,406.6h1.7v-8.8h-1.7V406.6z M247.7,413.9v-2.8h9.7v-20.2c1.1,0,3.4,1.1,3.4,3.2v17
			c0.7,0,1.3,2,1.3,2.8H247.7z"/>
		<path class="st0" d="M276.9,393.6v2.2h6.8c1,0,1.9,1.7,2.4,2.6h-9.2v1.8h5.1c1.5,0,3.8,2,3.9,3.1v10.7h-22v-13.8h8.8v-1.8h-8.8
			v-2.6h8.8v-2.2h-9.1v-2.7h20.6c0.8,0,1.6,1.7,2.3,2.7H276.9z M276.9,405.7h1.8c0.3,0,0.5,0.1,0.8,0.3c0.3,0.2,1.9,2.1,2.1,2.3
			h-4.6v3h5v-8.6h-5V405.7z M267.9,405.7h4.9v-3h-4.9V405.7z M267.9,411.3h4.9v-3h-4.9V411.3z"/>
		<path class="st0" d="M292.4,393.9v6.5h14.1c1.3,0,3.6,2.1,3.6,3.2v10.4h-21.8v-19.8c0-1.6,1-3.2,2.7-3.2h16.7c1.3,0,2.8,2,3,3
			H292.4z M301.3,411h4.6v-7.6h-4.6V411z M292.4,411h4.9v-7.6h-4.9V411z"/>
		<path class="st0" d="M318.8,393.9v6.5h14.1c1.3,0,3.6,2.1,3.6,3.2v10.4h-21.8v-19.8c0-1.6,1-3.2,2.7-3.2H334c1.3,0,2.8,2,3,3
			H318.8z M327.7,411h4.6v-7.6h-4.6V411z M318.8,411h4.9v-7.6h-4.9V411z"/>
		<path class="st0" d="M351,398.1v0.7h1.6v-0.6h9.9c0,0-0.2-1.3-2.4-1.3h-7.4v-3.6c0-2.7-1.7-3-1.7-3v6.5h-11.8v1.3H351z"/>
		<path class="st0" d="M342.9,395.1h1.8c0,0-1.8-2.4-2.4-3c-0.6-0.6-1.3-1.6-2.4-1.6c-0.6,0-0.8,0-0.8,0L342.9,395.1z"/>
		<path class="st0" d="M359.8,395.1H358c0,0,1.8-2.4,2.4-3c0.6-0.6,1.3-1.6,2.4-1.6c0.6,0,0.8,0,0.8,0L359.8,395.1z"/>
		<path class="st0" d="M360,411.6c2.1,0,2.5,1.3,2.5,1.3h-9.9l0.7,0.9h-1.6l-0.8-1h-6.6l0.8,1h-1.7l-4.2-5.5h1.8V401
			c0,0,0.2,0,0.4,0c2.6,0,2.8,0.3,2.8,0.3H360c2.1,0,2.3,1.3,2.3,1.3h-9.8v2.2h7.5c2.1,0,2.4,1.3,2.4,1.3h-9.9v2.2h7.5
			c2.1,0,2.4,1.4,2.4,1.4h-9.9v2.1H360z M342.5,404.6h8.4v-2.1h-8.4V404.6z M342.5,408h8.4V406h-8.4V408z M350.8,409.5h-8.4l0,0.7
			l0.4,0.6l0.6,0.7h7.4V409.5z"/>
		<path class="st0" d="M367.4,413.9v-23.3H387c1.5,0,2,1.4,2,2.8v20.4H367.4z M387.4,393.7c0-0.8-0.2-1.5-1.3-1.5h-17.2v20.4h18.5
			V393.7z"/>
		<path class="st0" d="M376.2,404.5l-4.9-8.9c0,0,1.7-0.3,2.4,1.3l4.2,7.6L376.2,404.5z"/>
		<path class="st0" d="M382.3,397.2c0-0.5-0.2-0.7-0.5-0.7h-1.7v-1.3h2.1c1.3,0,1.7,0.5,1.7,1.9c0,0,0,8.7,0,8.7
			c1.6,0,1.7,1.4,1.7,1.4l-1.7,0v3h-1.6v-3h-11.1v-1.4h11.1V397.2z"/>
	</g>
</g>
</svg>
