<?xml version="1.0" encoding="utf-8"?>
<!-- Generator: Adobe Illustrator 25.2.0, SVG Export Plug-In . SVG Version: 6.00 Build 0)  -->
<svg version="1.1" id="katman_1" xmlns="http://www.w3.org/2000/svg" xmlns:xlink="http://www.w3.org/1999/xlink" x="0px" y="0px"
	 viewBox="0 0 560 400" style="enable-background:new 0 0 560 400;" xml:space="preserve">
<style type="text/css">
	.st0{fill:#FF6600;}
	.st1{fill:#652C8F;}
</style>
<g transform="matrix(1.21941 0 0 1.21941 100 134.008)">
	<g>
		<path class="st0" d="M174.81,70.13l22.27-25.02l-22.27-25.03h23.5l11.03,12.16l10.62-12.16h22.68L220.48,45l22.47,25.13h-23.59
			l-10.93-12.26l-10.83,12.26H174.81z"/>
		<path class="st0" d="M174.81,8.85h-25.22v11.22h25.22v16.91h-25.22V52.5h25.22v17.62h-43.76V-8.72h43.76L174.81,8.85z"/>
		<path class="st1" d="M112.59-8.72v32.27h-0.2c-4.09-4.7-9.19-6.33-15.12-6.33c-12.14,0-21.28,8.25-24.49,19.16
			c-3.66-12.02-13.1-19.38-27.09-19.38c-11.37,0-20.34,5.1-25.03,13.42V20.08H-2.84V8.86H22.8V-8.72h-46.58v78.85h20.94V36.98h20.87
			c-0.62,2.43-0.95,5.04-0.95,7.79c0,16.45,12.56,27.99,28.6,27.99c13.48,0,22.37-6.33,27.07-17.87H54.8
			c-2.43,3.47-4.27,4.5-9.12,4.5c-5.63,0-10.48-4.91-10.48-10.73h36.54c1.58,13.06,11.76,24.33,25.73,24.33
			c6.02,0,11.54-2.96,14.91-7.97h0.2v5.1h18.46V-8.72L112.59-8.72z M35.78,37.22c1.16-5.01,5.05-8.28,9.9-8.28
			c5.34,0,9.02,3.17,9.99,8.28H35.78z M101.38,58.12c-6.81,0-11.03-6.34-11.03-12.96c0-7.08,3.68-13.88,11.03-13.88
			c7.63,0,10.67,6.81,10.67,13.88C112.05,51.87,108.83,58.12,101.38,58.12z"/>
	</g>
	<g>
		<path class="st1" d="M141.21,107.9c2.85,0,5.93-1.68,6.52-4.68h2.81c-1.01,4.33-4.76,6.79-9.4,6.79
			c-8.59,0-12.06-6.63-12.06-14.59c0-7.96,3.47-14.59,12.06-14.59c4.64,0,8.39,2.46,9.4,6.79h-2.81c-0.59-3.01-3.67-4.68-6.52-4.68
			c-7.06,0-9.44,6.44-9.44,12.48C131.77,101.46,134.15,107.9,141.21,107.9z"/>
		<path class="st1" d="M162.25,110.01c-6.01,0-9.25-4.64-9.25-10.34c0-5.7,3.23-10.34,9.25-10.34c6.01,0,9.25,4.64,9.25,10.34
			C171.49,105.37,168.25,110.01,162.25,110.01z M162.25,108.21c4.72,0,6.71-4.29,6.71-8.54c0-4.25-1.99-8.54-6.71-8.54
			c-4.72,0-6.71,4.29-6.71,8.54C155.53,103.92,157.52,108.21,162.25,108.21z"/>
		<path class="st1" d="M183.9,91.63c-3.94,0-5.3,3.32-5.3,6.75v11.16h-2.38V95.61c0-1.91-0.04-3.87-0.12-5.81h2.34l0.16,2.85
			c1.17-2.26,3.12-3.31,5.73-3.31c0.35,0,0.74,0.04,1.1,0.08v2.38C184.87,91.71,184.44,91.63,183.9,91.63L183.9,91.63z"/>
		<path class="st1" d="M190.48,116.95h-2.38V95.69c0-1.95,0-3.94-0.12-5.89h2.34l0.08,2.97c1.48-2.35,3.43-3.44,6.36-3.44
			c6.08,0,8.7,5.04,8.7,10.34c0,5.31-2.61,10.34-8.7,10.34c-2.73,0-4.88-1.05-6.28-3.31V116.95z M202.92,99.67
			c0-4.21-1.76-8.35-6.44-8.35c-4.41,0-6.01,3.63-6.01,8.35c0,4.72,1.6,8.35,6.01,8.35C201.17,108.02,202.92,103.89,202.92,99.67z"
			/>
		<path class="st1" d="M217.72,110.01c-6.01,0-9.25-4.64-9.25-10.34c0-5.7,3.24-10.34,9.25-10.34c6.01,0,9.25,4.64,9.25,10.34
			C226.96,105.37,223.72,110.01,217.72,110.01z M217.72,108.21c4.72,0,6.71-4.29,6.71-8.54c0-4.25-1.99-8.54-6.71-8.54
			c-4.72,0-6.71,4.29-6.71,8.54C211,103.92,212.99,108.21,217.72,108.21z"/>
		<path class="st1" d="M239.37,91.63c-3.94,0-5.31,3.32-5.31,6.75v11.16h-2.38V95.61c0-1.91-0.04-3.87-0.12-5.81h2.35l0.16,2.85
			c1.17-2.26,3.12-3.31,5.73-3.31c0.36,0,0.74,0.04,1.09,0.08v2.38C240.35,91.71,239.91,91.63,239.37,91.63z"/>
		<path class="st1" d="M254.91,109.54c-0.16-0.94-0.23-1.6-0.31-2.66c-1.52,2.3-3.51,3.12-6.6,3.12c-3.59,0-6.87-1.83-6.87-5.81
			c0-5.74,6.05-6.59,10.89-6.59c0.93,0,1.72,0.04,2.3,0.07V96.2c0-3.35-1.37-5.07-4.84-5.07c-2.53,0-4.33,0.98-4.64,3.78h-2.38
			c0.04-4.25,3.75-5.58,7.02-5.58c4.88,0,7.22,1.33,7.22,6.2v6.71c0,3.05,0.11,4.84,0.47,7.3L254.91,109.54z M254.33,99.47
			c-0.66-0.04-1.21-0.07-1.87-0.07c-3.28,0-8.78,0.19-8.78,4.72c0,2.73,2.26,4.09,4.76,4.09c3.98,0,5.89-2.34,5.89-6.9L254.33,99.47
			z"/>
		<path class="st1" d="M267.01,110.01c-2.85,0-4.18-1.67-4.18-4.52V91.6h-3.2v-1.8h3.2v-4.02l2.38-1.05v5.07h4.37v1.8h-4.37v12.84
			c0,2.77,0.47,3.59,2.46,3.59c0.75,0,1.68-0.27,2.11-0.51v2.03C268.96,109.78,268.26,110.01,267.01,110.01L267.01,110.01z"/>
		<path class="st1" d="M272.73,84.3v-2.97h2.85v2.97H272.73z M272.97,109.54V89.8h2.38v19.75L272.97,109.54z"/>
		<path class="st1" d="M289.32,110.01c-6.01,0-9.25-4.64-9.25-10.34c0-5.7,3.24-10.34,9.25-10.34s9.25,4.64,9.25,10.34
			C298.56,105.37,295.33,110.01,289.32,110.01z M289.32,108.21c4.72,0,6.71-4.29,6.71-8.54c0-4.25-1.99-8.54-6.71-8.54
			c-4.72,0-6.71,4.29-6.71,8.54C282.61,103.92,284.6,108.21,289.32,108.21z"/>
		<path class="st1" d="M305.5,89.8l0.08,2.97c1.37-2.31,3.51-3.44,6.4-3.44c5.27,0,7.02,2.89,7.02,7.84v12.37h-2.38V98.11
			c0-3.67-0.86-6.79-5.03-6.79c-4.45,0-5.93,3.94-5.93,7.84v10.38h-2.38V95.69c0-1.95-0.04-3.94-0.11-5.89L305.5,89.8L305.5,89.8z"
			/>
	</g>
</g>
</svg>
