<?xml version="1.0" encoding="utf-8"?>
<!-- Generator: Adobe Illustrator 19.0.0, SVG Export Plug-In . SVG Version: 6.00 Build 0)  -->
<svg version="1.1" id="layer" xmlns="http://www.w3.org/2000/svg" xmlns:xlink="http://www.w3.org/1999/xlink" x="0px" y="0px"
	 viewBox="-153 -46 652 652" style="enable-background:new -153 -46 652 652;" xml:space="preserve">
<style type="text/css">
	.st0{fill:#0073AB;}
	.st1{fill:#4C565C;}
</style>
<path id="XMLID_19_" class="st0" d="M-129.7,318.9V293h106.2c6.1,0,11.4-2.1,15.9-6.3c4.5-4.2,6.7-9.4,6.7-15.5
	c0-6.1-2.2-11.3-6.6-15.5c-4.4-4.2-9.7-6.3-16-6.3h-64.4c-16.8,0-29.3-7-37.6-21.1c-4-6.8-6-14.1-6-21.9c0-11.8,4.2-21.9,12.6-30.3
	s18.5-12.7,30.5-12.7H19.8v25.1H-87.5c-5.1,0-9.5,1.8-13.2,5.3c-3.6,3.5-5.5,7.8-5.5,12.8c0,5.2,1.8,9.5,5.5,13
	c3.6,3.5,8,5.3,13.2,5.3h65.5c18.9,0,32.8,7.9,41.7,23.6c4.1,7.3,6.2,15.1,6.2,23.4c0,13.9-4.8,25.3-14.3,34.1
	c-9.5,8.8-21.2,13.2-34.9,13.2H-129.7z M118.9,163c-15.3,0-29.4,3.7-42,11c-12.7,7.3-22.5,17.7-29.5,31c-5.8,11.5-8.7,23.6-8.7,36.3
	c0,22.4,8,41.1,23.9,56.4c15.9,15.3,35.1,22.9,57.7,22.9c7.8,0,17-1.8,27.5-5.3v-25.3c-8,4.5-16.8,6.8-26.3,6.8
	c-15.9,0-29.3-5.3-40.3-15.9c-11-10.6-16.5-23.8-16.5-39.7c0-15.8,5.6-29.1,16.8-39.8c10.5-10,23.1-15.3,37.8-16H159v133.8h24.3
	V185.6V163H118.9z M384.5,161c-46.4,0-84,35.9-84,80.1c0,44.3,37.6,80.1,84,80.1c31.3,0,58.6-16.3,73-40.5l-24.3-7
	c-10.8,14.6-28.6,24.1-48.8,24.1c-32.9,0-59.6-25.4-59.6-56.7c0-31.3,26.7-56.7,59.6-56.7c27.7,0,51,18,57.7,42.3h-93.4v22.6h119.4
	c0.3-2.7,0.4-5.5,0.4-8.2C468.6,196.8,431,161,384.5,161 M272.3,182.5l0,0.1h14v-22.6h-14c-38.5,0-69.7,29.7-69.7,66.4v92.8h24.4
	v-70.3h53.9v-22.6h-53.9C227.1,202.2,247.3,182.5,272.3,182.5"/>
<path id="XMLID_1_" class="st1" d="M64.3,366.6h-7.1V364h10.2v15.3c-3.1,1.4-6.2,1.9-9.6,1.9c-9.7,0-15.5-6.4-15.5-15.9
	c0-9.4,6-15.9,15.5-15.9c2.3,0,6.2,0.4,8.2,1.5l-0.4,2.8c-2.4-1.3-5.2-1.6-7.9-1.6c-8,0-12.5,5.6-12.5,13.3
	c0,7.8,4.4,13.3,12.5,13.3c1.9,0,5.1-0.2,6.5-1.1V366.6z M88.8,380.7h2.7c-0.2-1.6-0.2-2.9-0.2-4.7V366c0-5.9-2.3-8.4-7.9-8.4
	c-2,0-4.9,0.7-6.6,1.5v2.7c2.1-1.3,4.3-1.9,6.6-1.9c3.8,0,5.1,1.9,5.1,5.8v1.1H88c-5.8,0-13.9,0.4-13.9,7.9c0,2,1,6.4,7.4,6.4
	c2.8,0,5.9-1.5,7.2-4.1h0.1V380.7z M88.5,370.7c0,2.4-0.1,8.1-6.7,8.1c-2.6,0-4.7-1.1-4.7-4.1c0-4.9,5.7-5.4,10.5-5.4h0.8V370.7z
	 M97.3,380.2c2,0.8,4.1,1.1,6.3,1.1c3.4,0,7.8-1.6,7.8-6.4c0-7.4-11.1-6.8-11.1-11c0-2.9,2-3.8,4.9-3.8c1.5,0,3.5,0.4,5,1.1l0.3-2.4
	c-2-0.7-4.4-1-5.5-1c-3.7,0-7.3,1.7-7.3,6.1c0,6.5,10.8,5.7,10.8,11c0,2.6-2.3,4-5,4c-2.2,0-4.2-0.6-5.9-1.4L97.3,380.2z
	 M150.7,347.6h-2.8V362h-0.1c-0.4-1.1-2.6-4.3-7-4.3c-6.6,0-9.3,4.9-9.3,11.8c0,6.7,3.1,11.8,9.3,11.8c3.2,0,5.5-1.2,7-4.1h0.1v3.6
	h2.8V347.6z M141.2,378.8c-5.3,0-6.7-5-6.7-9.4c0-4.4,1.4-9.4,6.7-9.4c4.9,0,6.7,5.3,6.7,9.4C147.9,373.5,146.2,378.8,141.2,378.8
	 M174.1,377.2c-1.3,0.8-4.3,1.7-6.3,1.7c-4.8,0-7.4-3.8-7.4-8.6h15.4v-1.4c0-6.1-2.6-11.2-9-11.2c-5.7,0-9.5,4.9-9.5,11.8
	c0,6.7,2.8,11.8,10.2,11.8c2.1,0,4.6-0.4,6.5-1.2V377.2z M160.3,367.8c0-3.7,2.5-7.8,6.6-7.8c4.1,0,5.7,3.9,5.7,7.8H160.3z
	 M180.6,380.2c2,0.8,4.1,1.1,6.3,1.1c3.4,0,7.8-1.6,7.8-6.4c0-7.4-11.1-6.8-11.1-11c0-2.9,2-3.8,4.9-3.8c1.5,0,3.5,0.4,5,1.1
	l0.3-2.4c-2-0.7-4.4-1-5.5-1c-3.7,0-7.3,1.7-7.3,6.1c0,6.5,10.8,5.7,10.8,11c0,2.6-2.3,4-5,4c-2.2,0-4.2-0.6-5.9-1.4L180.6,380.2z
	 M203.8,348.5H201v3.7h2.8V348.5z M201,380.7h2.8v-22.5H201V380.7z M229.9,358.2h-2.8v2.6H227c-2.1-2.7-4-3.1-7-3.1
	c-6.6,0-9.3,4.9-9.3,11.8c0,5,2.3,11.2,9.5,11.2c2.9,0,5.3-1.1,6.8-4.4h0.1c0,6.4-0.6,11.6-7.8,11.6c-2.4,0-4.9-0.7-6.6-1.6
	l-0.2,2.8c1.1,0.3,3.8,1.2,6.8,1.2c7.7,0,10.5-5.1,10.5-11.4V358.2z M220.3,378.3c-4.7,0-6.5-4.5-6.5-8.9c0-4.4,1.4-9.4,6.7-9.4
	c5.1,0,6.7,4,6.7,9.4C227.1,373.5,225.3,378.3,220.3,378.3 M237.9,380.7h2.8v-12.4c0-3.8,1.6-8.2,6.7-8.2c3.8,0,5.3,2.7,5.3,7v13.7
	h2.8v-14.4c0-4.9-2.1-8.6-7.7-8.6c-4.7,0-6.3,2.5-7.3,4.5h-0.1v-4h-2.7c0.2,1.8,0.2,3.6,0.2,5.3V380.7z M278.9,377.2
	c-1.3,0.8-4.3,1.7-6.3,1.7c-4.8,0-7.4-3.8-7.4-8.6h15.4v-1.4c0-6.1-2.6-11.2-9-11.2c-5.7,0-9.5,4.9-9.5,11.8
	c0,6.7,2.8,11.8,10.2,11.8c2.1,0,4.6-0.4,6.5-1.2V377.2z M265.2,367.8c0-3.7,2.5-7.8,6.6-7.8c4.1,0,5.7,3.9,5.7,7.8H265.2z
	 M305.3,347.6h-2.8V362h-0.1c-0.4-1.1-2.6-4.3-7-4.3c-6.6,0-9.3,4.9-9.3,11.8c0,6.7,3.1,11.8,9.3,11.8c3.2,0,5.5-1.2,7-4.1h0.1v3.6
	h2.8V347.6z M295.8,378.8c-5.3,0-6.7-5-6.7-9.4c0-4.4,1.4-9.4,6.7-9.4c4.9,0,6.7,5.3,6.7,9.4C302.5,373.5,300.8,378.8,295.8,378.8
	 M330.3,380.7h2.8v-20.1h5.1v-2.4h-5.1v-2c0-2.7-0.4-6.8,3.4-6.8c0.8,0,1.6,0.2,2.2,0.5l0.2-2.4c-0.5-0.3-1.7-0.4-2.6-0.4
	c-5.8,0-6,4.8-6,9.5v1.6h-4.5v2.4h4.5V380.7z M352.5,357.6c-7.3,0-10.5,5.7-10.5,11.8c0,6.1,3.2,11.8,10.5,11.8
	c7.3,0,10.5-5.6,10.5-11.8C363,363.3,359.8,357.6,352.5,357.6 M352.5,378.8c-4.9,0-7.5-4.2-7.5-9.4c0-5.2,2.6-9.4,7.5-9.4
	c4.9,0,7.5,4.2,7.5,9.4C360,374.6,357.4,378.8,352.5,378.8 M369.7,380.7h2.8v-11.1c0-4.1,1.2-9,5.6-9c0.7,0,1.5,0.1,2,0.3v-2.9
	c-0.5-0.1-1.3-0.3-2-0.3c-2.9,0-4.8,2.3-5.8,4.9h-0.1v-4.3h-2.8c0.2,1.6,0.2,2.6,0.2,5V380.7z M400.8,358.2h-3l8,22.8l-0.6,2
	c-0.9,2.9-1.7,4.9-4.1,4.9c-1,0-1.5-0.2-2.1-0.3l-0.3,2.4c0.9,0.2,2,0.4,3,0.4c3.1,0,4.7-3.1,5.8-6.2l9-25.9h-2.9l-6.5,18.8h0
	L400.8,358.2z M430.3,357.6c-7.3,0-10.5,5.7-10.5,11.8c0,6.1,3.2,11.8,10.5,11.8c7.3,0,10.5-5.6,10.5-11.8
	C440.8,363.3,437.6,357.6,430.3,357.6 M430.3,378.8c-4.9,0-7.5-4.2-7.5-9.4c0-5.2,2.6-9.4,7.5-9.4c4.9,0,7.5,4.2,7.5,9.4
	C437.8,374.6,435.2,378.8,430.3,378.8 M465.1,358.2h-2.8v12.4c0,3.8-1.6,8.2-6.7,8.2c-3.8,0-5.3-2.7-5.3-7v-13.7h-2.8v14.4
	c0,4.9,2.1,8.6,7.7,8.6c4.7,0,6.3-2.5,7.3-4.5h0.1v4h2.7c-0.2-1.8-0.2-3.6-0.2-5.3V358.2z"/>
</svg>
